<?xml version="1.0" encoding="UTF-8" standalone="no"?>
<!DOCTYPE svg PUBLIC "-//W3C//DTD SVG 1.1//EN"
 "http://www.w3.org/Graphics/SVG/1.1/DTD/svg11.dtd">
<!-- Generated by graphviz version 3.0.0 (20221109.1736)
 -->
<!-- Title: /github/workspace/source/gstkalman.cpp Pages: 1 -->
<svg width="390pt" height="95pt"
 viewBox="0.00 0.00 390.00 95.00" xmlns="http://www.w3.org/2000/svg" xmlns:xlink="http://www.w3.org/1999/xlink">
<g id="graph0" class="graph" transform="scale(1 1) rotate(0) translate(4 91)">
<title>/github/workspace/source/gstkalman.cpp</title>
<polygon fill="white" stroke="transparent" points="-4,4 -4,-91 386,-91 386,4 -4,4"/>
<!-- Node1 -->
<g id="node1" class="node">
<title>Node1</title>
<g id="a_node1"><a xlink:title="The GStreamer Kalman filter video plugin element implementation.">
<polygon fill="#bfbfbf" stroke="black" points="115,-56.5 115,-86.5 243,-86.5 243,-56.5 115,-56.5"/>
<text text-anchor="start" x="123" y="-74.5" font-family="Helvetica,sans-Serif" font-size="10.00">/github/workspace/source</text>
<text text-anchor="middle" x="179" y="-63.5" font-family="Helvetica,sans-Serif" font-size="10.00">/gstkalman.cpp</text>
</a>
</g>
</g>
<!-- Node2 -->
<g id="node2" class="node">
<title>Node2</title>
<g id="a_node2"><a xlink:title=" ">
<polygon fill="white" stroke="#bfbfbf" points="0,-0.5 0,-19.5 66,-19.5 66,-0.5 0,-0.5"/>
<text text-anchor="middle" x="33" y="-7.5" font-family="Helvetica,sans-Serif" font-size="10.00">string_view</text>
</a>
</g>
</g>
<!-- Node1&#45;&gt;Node2 -->
<g id="edge1" class="edge">
<title>Node1&#45;&gt;Node2</title>
<path fill="none" stroke="midnightblue" d="M144.4,-56.4C119.9,-46.42 87.34,-33.15 63.75,-23.53"/>
<polygon fill="midnightblue" stroke="midnightblue" points="64.83,-20.19 54.24,-19.66 62.18,-26.67 64.83,-20.19"/>
</g>
<!-- Node3 -->
<g id="node3" class="node">
<title>Node3</title>
<g id="a_node3"><a xlink:title=" ">
<polygon fill="white" stroke="#bfbfbf" points="84,-0.5 84,-19.5 152,-19.5 152,-0.5 84,-0.5"/>
<text text-anchor="middle" x="118" y="-7.5" font-family="Helvetica,sans-Serif" font-size="10.00">glib&#45;object.h</text>
</a>
</g>
</g>
<!-- Node1&#45;&gt;Node3 -->
<g id="edge2" class="edge">
<title>Node1&#45;&gt;Node3</title>
<path fill="none" stroke="midnightblue" d="M164.54,-56.4C155.41,-47.49 143.58,-35.95 134.14,-26.74"/>
<polygon fill="midnightblue" stroke="midnightblue" points="136.48,-24.13 126.88,-19.66 131.59,-29.15 136.48,-24.13"/>
</g>
<!-- Node4 -->
<g id="node4" class="node">
<title>Node4</title>
<g id="a_node4"><a xlink:title=" ">
<polygon fill="white" stroke="#bfbfbf" points="170,-0.5 170,-19.5 310,-19.5 310,-0.5 170,-0.5"/>
<text text-anchor="middle" x="240" y="-7.5" font-family="Helvetica,sans-Serif" font-size="10.00">gst/base/gstbasetransform.h</text>
</a>
</g>
</g>
<!-- Node1&#45;&gt;Node4 -->
<g id="edge3" class="edge">
<title>Node1&#45;&gt;Node4</title>
<path fill="none" stroke="midnightblue" d="M193.46,-56.4C202.59,-47.49 214.42,-35.95 223.86,-26.74"/>
<polygon fill="midnightblue" stroke="midnightblue" points="226.41,-29.15 231.12,-19.66 221.52,-24.13 226.41,-29.15"/>
</g>
<!-- Node5 -->
<g id="node5" class="node">
<title>Node5</title>
<g id="a_node5"><a xlink:title=" ">
<polygon fill="white" stroke="#bfbfbf" points="328,-0.5 328,-19.5 382,-19.5 382,-0.5 328,-0.5"/>
<text text-anchor="middle" x="355" y="-7.5" font-family="Helvetica,sans-Serif" font-size="10.00">gst/gst.h</text>
</a>
</g>
</g>
<!-- Node1&#45;&gt;Node5 -->
<g id="edge4" class="edge">
<title>Node1&#45;&gt;Node5</title>
<path fill="none" stroke="midnightblue" d="M220.71,-56.4C250.99,-46.16 291.49,-32.47 320.07,-22.81"/>
<polygon fill="midnightblue" stroke="midnightblue" points="321.3,-26.09 329.65,-19.57 319.05,-19.46 321.3,-26.09"/>
</g>
</g>
</svg>
