<?xml version="1.0" encoding="UTF-8" standalone="no"?>
<!DOCTYPE svg PUBLIC "-//W3C//DTD SVG 1.1//EN"
 "http://www.w3.org/Graphics/SVG/1.1/DTD/svg11.dtd">
<!-- Generated by graphviz version 3.0.0 (20221109.1736)
 -->
<!-- Title: /github/workspace/source/gstkalman.cpp Pages: 1 -->
<svg width="910pt" height="95pt"
 viewBox="0.00 0.00 909.50 95.00" xmlns="http://www.w3.org/2000/svg" xmlns:xlink="http://www.w3.org/1999/xlink">
<g id="graph0" class="graph" transform="scale(1 1) rotate(0) translate(4 91)">
<title>/github/workspace/source/gstkalman.cpp</title>
<polygon fill="white" stroke="transparent" points="-4,4 -4,-91 905.5,-91 905.5,4 -4,4"/>
<!-- Node1 -->
<g id="node1" class="node">
<title>Node1</title>
<g id="a_node1"><a xlink:title="The GStreamer Kalman filter video plugin element implementation.">
<polygon fill="#bfbfbf" stroke="black" points="473.5,-56.5 473.5,-86.5 601.5,-86.5 601.5,-56.5 473.5,-56.5"/>
<text text-anchor="start" x="481.5" y="-74.5" font-family="Helvetica,sans-Serif" font-size="10.00">/github/workspace/source</text>
<text text-anchor="middle" x="537.5" y="-63.5" font-family="Helvetica,sans-Serif" font-size="10.00">/gstkalman.cpp</text>
</a>
</g>
</g>
<!-- Node2 -->
<g id="node2" class="node">
<title>Node2</title>
<g id="a_node2"><a xlink:title=" ">
<polygon fill="white" stroke="#bfbfbf" points="0,-0.5 0,-19.5 107,-19.5 107,-0.5 0,-0.5"/>
<text text-anchor="middle" x="53.5" y="-7.5" font-family="Helvetica,sans-Serif" font-size="10.00">fcarouge/kalman.hpp</text>
</a>
</g>
</g>
<!-- Node1&#45;&gt;Node2 -->
<g id="edge1" class="edge">
<title>Node1&#45;&gt;Node2</title>
<path fill="none" stroke="midnightblue" d="M473.25,-63.25C392.66,-54.05 249.95,-37.43 117.06,-20.05"/>
<polygon fill="midnightblue" stroke="midnightblue" points="117.48,-16.57 107.1,-18.74 116.56,-23.51 117.48,-16.57"/>
</g>
<!-- Node3 -->
<g id="node3" class="node">
<title>Node3</title>
<g id="a_node3"><a xlink:title=" ">
<polygon fill="white" stroke="#bfbfbf" points="125.5,-0.5 125.5,-19.5 193.5,-19.5 193.5,-0.5 125.5,-0.5"/>
<text text-anchor="middle" x="159.5" y="-7.5" font-family="Helvetica,sans-Serif" font-size="10.00">glib&#45;object.h</text>
</a>
</g>
</g>
<!-- Node1&#45;&gt;Node3 -->
<g id="edge2" class="edge">
<title>Node1&#45;&gt;Node3</title>
<path fill="none" stroke="midnightblue" d="M473.41,-61.94C408.03,-52.96 303.43,-37.9 203.68,-20.13"/>
<polygon fill="midnightblue" stroke="midnightblue" points="204.19,-16.67 193.73,-18.35 202.96,-23.56 204.19,-16.67"/>
</g>
<!-- Node4 -->
<g id="node4" class="node">
<title>Node4</title>
<g id="a_node4"><a xlink:title=" ">
<polygon fill="white" stroke="#bfbfbf" points="211.5,-0.5 211.5,-19.5 351.5,-19.5 351.5,-0.5 211.5,-0.5"/>
<text text-anchor="middle" x="281.5" y="-7.5" font-family="Helvetica,sans-Serif" font-size="10.00">gst/base/gstbasetransform.h</text>
</a>
</g>
</g>
<!-- Node1&#45;&gt;Node4 -->
<g id="edge3" class="edge">
<title>Node1&#45;&gt;Node4</title>
<path fill="none" stroke="midnightblue" d="M477.16,-56.47C431.54,-45.87 369.85,-31.53 328.02,-21.81"/>
<polygon fill="midnightblue" stroke="midnightblue" points="328.63,-18.36 318.1,-19.51 327.05,-25.18 328.63,-18.36"/>
</g>
<!-- Node5 -->
<g id="node5" class="node">
<title>Node5</title>
<g id="a_node5"><a xlink:title=" ">
<polygon fill="white" stroke="#bfbfbf" points="369.5,-0.5 369.5,-19.5 423.5,-19.5 423.5,-0.5 369.5,-0.5"/>
<text text-anchor="middle" x="396.5" y="-7.5" font-family="Helvetica,sans-Serif" font-size="10.00">gst/gst.h</text>
</a>
</g>
</g>
<!-- Node1&#45;&gt;Node5 -->
<g id="edge4" class="edge">
<title>Node1&#45;&gt;Node5</title>
<path fill="none" stroke="midnightblue" d="M504.08,-56.4C480.53,-46.46 449.26,-33.26 426.51,-23.66"/>
<polygon fill="midnightblue" stroke="midnightblue" points="427.59,-20.32 417.02,-19.66 424.87,-26.77 427.59,-20.32"/>
</g>
<!-- Node6 -->
<g id="node6" class="node">
<title>Node6</title>
<g id="a_node6"><a xlink:title=" ">
<polygon fill="white" stroke="#bfbfbf" points="441.5,-0.5 441.5,-19.5 491.5,-19.5 491.5,-0.5 441.5,-0.5"/>
<text text-anchor="middle" x="466.5" y="-7.5" font-family="Helvetica,sans-Serif" font-size="10.00">scope.h</text>
</a>
</g>
</g>
<!-- Node1&#45;&gt;Node6 -->
<g id="edge5" class="edge">
<title>Node1&#45;&gt;Node6</title>
<path fill="none" stroke="midnightblue" d="M520.67,-56.4C509.83,-47.31 495.72,-35.49 484.63,-26.19"/>
<polygon fill="midnightblue" stroke="midnightblue" points="486.74,-23.4 476.83,-19.66 482.25,-28.76 486.74,-23.4"/>
</g>
<!-- Node7 -->
<g id="node7" class="node">
<title>Node7</title>
<g id="a_node7"><a xlink:title=" ">
<polygon fill="white" stroke="#bfbfbf" points="509.5,-0.5 509.5,-19.5 565.5,-19.5 565.5,-0.5 509.5,-0.5"/>
<text text-anchor="middle" x="537.5" y="-7.5" font-family="Helvetica,sans-Serif" font-size="10.00">algorithm</text>
</a>
</g>
</g>
<!-- Node1&#45;&gt;Node7 -->
<g id="edge6" class="edge">
<title>Node1&#45;&gt;Node7</title>
<path fill="none" stroke="midnightblue" d="M537.5,-56.4C537.5,-48.47 537.5,-38.46 537.5,-29.86"/>
<polygon fill="midnightblue" stroke="midnightblue" points="541,-29.66 537.5,-19.66 534,-29.66 541,-29.66"/>
</g>
<!-- Node8 -->
<g id="node8" class="node">
<title>Node8</title>
<g id="a_node8"><a xlink:title=" ">
<polygon fill="white" stroke="#bfbfbf" points="583.5,-0.5 583.5,-19.5 641.5,-19.5 641.5,-0.5 583.5,-0.5"/>
<text text-anchor="middle" x="612.5" y="-7.5" font-family="Helvetica,sans-Serif" font-size="10.00">execution</text>
</a>
</g>
</g>
<!-- Node1&#45;&gt;Node8 -->
<g id="edge7" class="edge">
<title>Node1&#45;&gt;Node8</title>
<path fill="none" stroke="midnightblue" d="M555.27,-56.4C566.85,-47.22 581.92,-35.26 593.7,-25.92"/>
<polygon fill="midnightblue" stroke="midnightblue" points="595.93,-28.61 601.59,-19.66 591.58,-23.13 595.93,-28.61"/>
</g>
<!-- Node9 -->
<g id="node9" class="node">
<title>Node9</title>
<g id="a_node9"><a xlink:title=" ">
<polygon fill="white" stroke="#bfbfbf" points="659.5,-0.5 659.5,-19.5 699.5,-19.5 699.5,-0.5 659.5,-0.5"/>
<text text-anchor="middle" x="679.5" y="-7.5" font-family="Helvetica,sans-Serif" font-size="10.00">limits</text>
</a>
</g>
</g>
<!-- Node1&#45;&gt;Node9 -->
<g id="edge8" class="edge">
<title>Node1&#45;&gt;Node9</title>
<path fill="none" stroke="midnightblue" d="M571.15,-56.4C595.12,-46.36 627.03,-32.99 650,-23.36"/>
<polygon fill="midnightblue" stroke="midnightblue" points="651.38,-26.58 659.25,-19.48 648.68,-20.12 651.38,-26.58"/>
</g>
<!-- Node10 -->
<g id="node10" class="node">
<title>Node10</title>
<g id="a_node10"><a xlink:title=" ">
<polygon fill="white" stroke="#bfbfbf" points="717.5,-0.5 717.5,-19.5 755.5,-19.5 755.5,-0.5 717.5,-0.5"/>
<text text-anchor="middle" x="736.5" y="-7.5" font-family="Helvetica,sans-Serif" font-size="10.00">span</text>
</a>
</g>
</g>
<!-- Node1&#45;&gt;Node10 -->
<g id="edge9" class="edge">
<title>Node1&#45;&gt;Node10</title>
<path fill="none" stroke="midnightblue" d="M586.24,-56.44C618.29,-47.12 661.39,-34.44 707.64,-20.22"/>
<polygon fill="midnightblue" stroke="midnightblue" points="708.71,-23.55 717.24,-17.26 706.65,-16.86 708.71,-23.55"/>
</g>
<!-- Node11 -->
<g id="node11" class="node">
<title>Node11</title>
<g id="a_node11"><a xlink:title=" ">
<polygon fill="white" stroke="#bfbfbf" points="773.5,-0.5 773.5,-19.5 839.5,-19.5 839.5,-0.5 773.5,-0.5"/>
<text text-anchor="middle" x="806.5" y="-7.5" font-family="Helvetica,sans-Serif" font-size="10.00">string_view</text>
</a>
</g>
</g>
<!-- Node1&#45;&gt;Node11 -->
<g id="edge10" class="edge">
<title>Node1&#45;&gt;Node11</title>
<path fill="none" stroke="midnightblue" d="M600.91,-56.47C651.06,-45.38 719.71,-30.2 763.59,-20.49"/>
<polygon fill="midnightblue" stroke="midnightblue" points="764.36,-23.91 773.37,-18.33 762.85,-17.07 764.36,-23.91"/>
</g>
<!-- Node12 -->
<g id="node12" class="node">
<title>Node12</title>
<g id="a_node12"><a xlink:title=" ">
<polygon fill="white" stroke="#bfbfbf" points="857.5,-0.5 857.5,-19.5 901.5,-19.5 901.5,-0.5 857.5,-0.5"/>
<text text-anchor="middle" x="879.5" y="-7.5" font-family="Helvetica,sans-Serif" font-size="10.00">vector</text>
</a>
</g>
</g>
<!-- Node1&#45;&gt;Node12 -->
<g id="edge11" class="edge">
<title>Node1&#45;&gt;Node12</title>
<path fill="none" stroke="midnightblue" d="M601.67,-62.4C662.64,-54.18 757,-40.1 847.37,-20.03"/>
<polygon fill="midnightblue" stroke="midnightblue" points="848.24,-23.42 857.23,-17.82 846.71,-16.6 848.24,-23.42"/>
</g>
</g>
</svg>
