<?xml version="1.0" encoding="UTF-8" standalone="no"?>
<!DOCTYPE svg PUBLIC "-//W3C//DTD SVG 1.1//EN"
 "http://www.w3.org/Graphics/SVG/1.1/DTD/svg11.dtd">
<!-- Generated by graphviz version 3.0.0 (20221109.1736)
 -->
<!-- Title: anonymous_namespace{gstkalman::cpp}::gst_kalman_class_init Pages: 1 -->
<svg width="307pt" height="170pt"
 viewBox="0.00 0.00 307.00 170.00" xmlns="http://www.w3.org/2000/svg" xmlns:xlink="http://www.w3.org/1999/xlink">
<g id="graph0" class="graph" transform="scale(1 1) rotate(0) translate(4 166)">
<title>anonymous_namespace{gstkalman::cpp}::gst_kalman_class_init</title>
<polygon fill="white" stroke="transparent" points="-4,4 -4,-166 303,-166 303,4 -4,4"/>
<!-- Node1 -->
<g id="node1" class="node">
<title>Node1</title>
<g id="a_node1"><a xlink:title="Defines the element details.">
<polygon fill="#bfbfbf" stroke="black" points="0,-60.5 0,-101.5 122,-101.5 122,-60.5 0,-60.5"/>
<text text-anchor="start" x="8" y="-89.5" font-family="Helvetica,sans-Serif" font-size="10.00">anonymous_namespace</text>
<text text-anchor="start" x="8" y="-78.5" font-family="Helvetica,sans-Serif" font-size="10.00">{gstkalman::cpp}::gst</text>
<text text-anchor="middle" x="61" y="-67.5" font-family="Helvetica,sans-Serif" font-size="10.00">_kalman_class_init</text>
</a>
</g>
</g>
<!-- Node2 -->
<g id="node2" class="node">
<title>Node2</title>
<g id="a_node2"><a xlink:href="namespaceanonymous__namespace_02gstkalman_8cpp_03.xhtml#a95c3fa1bc34fd840ccaf6161049bad5a" target="_top" xlink:title="Provides the element instance data on property request.">
<polygon fill="white" stroke="black" points="167.5,-120.5 167.5,-161.5 289.5,-161.5 289.5,-120.5 167.5,-120.5"/>
<text text-anchor="start" x="175.5" y="-149.5" font-family="Helvetica,sans-Serif" font-size="10.00">anonymous_namespace</text>
<text text-anchor="start" x="175.5" y="-138.5" font-family="Helvetica,sans-Serif" font-size="10.00">{gstkalman::cpp}::gst</text>
<text text-anchor="middle" x="228.5" y="-127.5" font-family="Helvetica,sans-Serif" font-size="10.00">_kalman_get_property</text>
</a>
</g>
</g>
<!-- Node1&#45;&gt;Node2 -->
<g id="edge1" class="edge">
<title>Node1&#45;&gt;Node2</title>
<path fill="none" stroke="midnightblue" d="M118.96,-101.65C132.55,-106.58 147.19,-111.88 161.17,-116.95"/>
<polygon fill="midnightblue" stroke="midnightblue" points="160.13,-120.3 170.72,-120.42 162.51,-113.72 160.13,-120.3"/>
</g>
<!-- Node3 -->
<g id="node3" class="node">
<title>Node3</title>
<g id="a_node3"><a xlink:href="namespaceanonymous__namespace_02gstkalman_8cpp_03.xhtml#ab2a2b863bf64abd37deb951e488c7e60" target="_top" xlink:title="Update the element instance data on property change.">
<polygon fill="white" stroke="black" points="167.5,-60.5 167.5,-101.5 289.5,-101.5 289.5,-60.5 167.5,-60.5"/>
<text text-anchor="start" x="175.5" y="-89.5" font-family="Helvetica,sans-Serif" font-size="10.00">anonymous_namespace</text>
<text text-anchor="start" x="175.5" y="-78.5" font-family="Helvetica,sans-Serif" font-size="10.00">{gstkalman::cpp}::gst</text>
<text text-anchor="middle" x="228.5" y="-67.5" font-family="Helvetica,sans-Serif" font-size="10.00">_kalman_set_property</text>
</a>
</g>
</g>
<!-- Node1&#45;&gt;Node3 -->
<g id="edge2" class="edge">
<title>Node1&#45;&gt;Node3</title>
<path fill="none" stroke="midnightblue" d="M122.22,-81C133.58,-81 145.56,-81 157.21,-81"/>
<polygon fill="midnightblue" stroke="midnightblue" points="157.33,-84.5 167.33,-81 157.33,-77.5 157.33,-84.5"/>
</g>
<!-- Node4 -->
<g id="node4" class="node">
<title>Node4</title>
<g id="a_node4"><a xlink:href="namespaceanonymous__namespace_02gstkalman_8cpp_03.xhtml#ab2d338224aa3266bd923e4124b228344" target="_top" xlink:title="Processes the data buffer in&#45;place.">
<polygon fill="white" stroke="black" points="158,-0.5 158,-41.5 299,-41.5 299,-0.5 158,-0.5"/>
<text text-anchor="start" x="166" y="-29.5" font-family="Helvetica,sans-Serif" font-size="10.00">anonymous_namespace</text>
<text text-anchor="start" x="166" y="-18.5" font-family="Helvetica,sans-Serif" font-size="10.00">{gstkalman::cpp}::gst</text>
<text text-anchor="middle" x="228.5" y="-7.5" font-family="Helvetica,sans-Serif" font-size="10.00">_kalman_transform_in_place</text>
</a>
</g>
</g>
<!-- Node1&#45;&gt;Node4 -->
<g id="edge3" class="edge">
<title>Node1&#45;&gt;Node4</title>
<path fill="none" stroke="midnightblue" d="M118.96,-60.35C132.55,-55.42 147.19,-50.12 161.17,-45.05"/>
<polygon fill="midnightblue" stroke="midnightblue" points="162.51,-48.28 170.72,-41.58 160.13,-41.7 162.51,-48.28"/>
</g>
</g>
</svg>
