<?xml version="1.0" encoding="UTF-8" standalone="no"?>
<!DOCTYPE svg PUBLIC "-//W3C//DTD SVG 1.1//EN"
 "http://www.w3.org/Graphics/SVG/1.1/DTD/svg11.dtd">
<!-- Generated by graphviz version 3.0.0 (20221109.1736)
 -->
<!-- Title: anonymous_namespace{gstkalman.cpp}::_GstKalman Pages: 1 -->
<svg width="289pt" height="403pt"
 viewBox="0.00 0.00 289.00 403.00" xmlns="http://www.w3.org/2000/svg" xmlns:xlink="http://www.w3.org/1999/xlink">
<g id="graph0" class="graph" transform="scale(1 1) rotate(0) translate(4 399)">
<title>anonymous_namespace{gstkalman.cpp}::_GstKalman</title>
<polygon fill="white" stroke="transparent" points="-4,4 -4,-399 285,-399 285,4 -4,4"/>
<!-- Node1 -->
<g id="node1" class="node">
<title>Node1</title>
<g id="a_node1"><a xlink:title="The GStreamer Kalman filter video plugin element datastructure.">
<polygon fill="#bfbfbf" stroke="black" points="100.5,-0.5 100.5,-68.5 244.5,-68.5 244.5,-0.5 100.5,-0.5"/>
<text text-anchor="start" x="108.5" y="-56.5" font-family="Helvetica,sans-Serif" font-size="10.00">anonymous_namespace</text>
<text text-anchor="middle" x="172.5" y="-45.5" font-family="Helvetica,sans-Serif" font-size="10.00">{gstkalman.cpp}::_GstKalman</text>
<polyline fill="none" stroke="black" points="100.5,-38.5 244.5,-38.5 "/>
<text text-anchor="middle" x="172.5" y="-26.5" font-family="Helvetica,sans-Serif" font-size="10.00"> </text>
<polyline fill="none" stroke="black" points="100.5,-19.5 244.5,-19.5 "/>
<text text-anchor="middle" x="172.5" y="-7.5" font-family="Helvetica,sans-Serif" font-size="10.00"> </text>
</a>
</g>
</g>
<!-- Node2 -->
<g id="node2" class="node">
<title>Node2</title>
<g id="a_node2"><a xlink:title=" ">
<polygon fill="white" stroke="black" points="0,-127.5 0,-184.5 99,-184.5 99,-127.5 0,-127.5"/>
<text text-anchor="middle" x="49.5" y="-172.5" font-family="Helvetica,sans-Serif" font-size="10.00">GstBaseTransform</text>
<polyline fill="none" stroke="black" points="0,-165.5 99,-165.5 "/>
<text text-anchor="middle" x="49.5" y="-153.5" font-family="Helvetica,sans-Serif" font-size="10.00"> </text>
<polyline fill="none" stroke="black" points="0,-146.5 99,-146.5 "/>
<text text-anchor="middle" x="49.5" y="-134.5" font-family="Helvetica,sans-Serif" font-size="10.00"> </text>
</a>
</g>
</g>
<!-- Node2&#45;&gt;Node1 -->
<g id="edge1" class="edge">
<title>Node2&#45;&gt;Node1</title>
<path fill="none" stroke="#404040" d="M78.03,-127.28C93.38,-112.37 112.62,-93.68 129.72,-77.06"/>
<polygon fill="none" stroke="#404040" points="129.83,-76.95 131.35,-69.9 138.44,-68.59 136.93,-75.64 129.83,-76.95"/>
<text text-anchor="middle" x="140" y="-95.5" font-family="Helvetica,sans-Serif" font-size="10.00"> +element</text>
</g>
<!-- Node3 -->
<g id="node3" class="node">
<title>Node3</title>
<g id="a_node3"><a xlink:title=" ">
<polygon fill="white" stroke="black" points="117.5,-127.5 117.5,-184.5 227.5,-184.5 227.5,-127.5 117.5,-127.5"/>
<text text-anchor="middle" x="172.5" y="-172.5" font-family="Helvetica,sans-Serif" font-size="10.00">std::vector&lt; kalman &gt;</text>
<polyline fill="none" stroke="black" points="117.5,-165.5 227.5,-165.5 "/>
<text text-anchor="middle" x="172.5" y="-153.5" font-family="Helvetica,sans-Serif" font-size="10.00"> </text>
<polyline fill="none" stroke="black" points="117.5,-146.5 227.5,-146.5 "/>
<text text-anchor="middle" x="172.5" y="-134.5" font-family="Helvetica,sans-Serif" font-size="10.00"> </text>
</a>
</g>
</g>
<!-- Node3&#45;&gt;Node1 -->
<g id="edge2" class="edge">
<title>Node3&#45;&gt;Node1</title>
<path fill="none" stroke="#404040" d="M172.5,-127.28C172.5,-113.47 172.5,-96.4 172.5,-80.75"/>
<polygon fill="none" stroke="#404040" points="172.5,-80.59 168.5,-74.59 172.5,-68.59 176.5,-74.59 172.5,-80.59"/>
<text text-anchor="middle" x="188.5" y="-95.5" font-family="Helvetica,sans-Serif" font-size="10.00"> +filters</text>
</g>
<!-- Node4 -->
<g id="node4" class="node">
<title>Node4</title>
<g id="a_node4"><a xlink:title=" ">
<polygon fill="white" stroke="black" points="109.5,-232.5 109.5,-289.5 157.5,-289.5 157.5,-232.5 109.5,-232.5"/>
<text text-anchor="middle" x="133.5" y="-277.5" font-family="Helvetica,sans-Serif" font-size="10.00">kalman</text>
<polyline fill="none" stroke="black" points="109.5,-270.5 157.5,-270.5 "/>
<text text-anchor="middle" x="133.5" y="-258.5" font-family="Helvetica,sans-Serif" font-size="10.00"> </text>
<polyline fill="none" stroke="black" points="109.5,-251.5 157.5,-251.5 "/>
<text text-anchor="middle" x="133.5" y="-239.5" font-family="Helvetica,sans-Serif" font-size="10.00"> </text>
</a>
</g>
</g>
<!-- Node4&#45;&gt;Node3 -->
<g id="edge3" class="edge">
<title>Node4&#45;&gt;Node3</title>
<path fill="none" stroke="#404040" d="M134.19,-232.38C135.13,-222.83 136.98,-212.22 140.5,-203 141.51,-200.35 142.71,-197.72 144.03,-195.12"/>
<polygon fill="none" stroke="#404040" points="144.03,-195.12 143.58,-187.92 150.06,-184.74 150.5,-191.94 144.03,-195.12"/>
<text text-anchor="middle" x="165" y="-206" font-family="Helvetica,sans-Serif" font-size="10.00"> +elements</text>
</g>
<!-- Node5 -->
<g id="node5" class="node">
<title>Node5</title>
<g id="a_node5"><a xlink:title=" ">
<polygon fill="white" stroke="black" points="175.5,-232.5 175.5,-289.5 259.5,-289.5 259.5,-232.5 175.5,-232.5"/>
<text text-anchor="middle" x="217.5" y="-277.5" font-family="Helvetica,sans-Serif" font-size="10.00">std::vector&lt; T &gt;</text>
<polyline fill="none" stroke="black" points="175.5,-270.5 259.5,-270.5 "/>
<text text-anchor="middle" x="217.5" y="-258.5" font-family="Helvetica,sans-Serif" font-size="10.00"> </text>
<polyline fill="none" stroke="black" points="175.5,-251.5 259.5,-251.5 "/>
<text text-anchor="middle" x="217.5" y="-239.5" font-family="Helvetica,sans-Serif" font-size="10.00"> </text>
</a>
</g>
</g>
<!-- Node5&#45;&gt;Node3 -->
<g id="edge4" class="edge">
<title>Node5&#45;&gt;Node3</title>
<path fill="none" stroke="orange" d="M201.35,-223.03C195.82,-210.38 189.74,-196.46 184.59,-184.68"/>
<polygon fill="orange" stroke="orange" points="198.23,-224.64 205.44,-232.4 204.64,-221.83 198.23,-224.64"/>
<text text-anchor="middle" x="221" y="-206" font-family="Helvetica,sans-Serif" font-size="10.00"> &lt; kalman &gt;</text>
</g>
<!-- Node6 -->
<g id="node6" class="node">
<title>Node6</title>
<g id="a_node6"><a xlink:title=" ">
<polygon fill="white" stroke="black" points="203,-337.5 203,-394.5 232,-394.5 232,-337.5 203,-337.5"/>
<text text-anchor="middle" x="217.5" y="-382.5" font-family="Helvetica,sans-Serif" font-size="10.00">T</text>
<polyline fill="none" stroke="black" points="203,-375.5 232,-375.5 "/>
<text text-anchor="middle" x="217.5" y="-363.5" font-family="Helvetica,sans-Serif" font-size="10.00"> </text>
<polyline fill="none" stroke="black" points="203,-356.5 232,-356.5 "/>
<text text-anchor="middle" x="217.5" y="-344.5" font-family="Helvetica,sans-Serif" font-size="10.00"> </text>
</a>
</g>
</g>
<!-- Node6&#45;&gt;Node5 -->
<g id="edge5" class="edge">
<title>Node6&#45;&gt;Node5</title>
<path fill="none" stroke="#404040" d="M217.5,-337.4C217.5,-326.55 217.5,-313.87 217.5,-302.05"/>
<polygon fill="none" stroke="#404040" points="217.5,-301.68 213.5,-295.68 217.5,-289.68 221.5,-295.68 217.5,-301.68"/>
<text text-anchor="middle" x="242" y="-311" font-family="Helvetica,sans-Serif" font-size="10.00"> +elements</text>
</g>
<!-- Node7 -->
<g id="node7" class="node">
<title>Node7</title>
<g id="a_node7"><a xlink:title=" ">
<polygon fill="white" stroke="black" points="246,-127.5 246,-184.5 281,-184.5 281,-127.5 246,-127.5"/>
<text text-anchor="middle" x="263.5" y="-172.5" font-family="Helvetica,sans-Serif" font-size="10.00">float</text>
<polyline fill="none" stroke="black" points="246,-165.5 281,-165.5 "/>
<text text-anchor="middle" x="263.5" y="-153.5" font-family="Helvetica,sans-Serif" font-size="10.00"> </text>
<polyline fill="none" stroke="black" points="246,-146.5 281,-146.5 "/>
<text text-anchor="middle" x="263.5" y="-134.5" font-family="Helvetica,sans-Serif" font-size="10.00"> </text>
</a>
</g>
</g>
<!-- Node7&#45;&gt;Node1 -->
<g id="edge6" class="edge">
<title>Node7&#45;&gt;Node1</title>
<path fill="none" stroke="#404040" d="M245.95,-131.96C234.45,-116.85 219.05,-96.63 205.33,-78.61"/>
<polygon fill="none" stroke="#404040" points="205.18,-78.41 198.36,-76.06 197.91,-68.87 204.73,-71.22 205.18,-78.41"/>
<text text-anchor="middle" x="232.5" y="-101" font-family="Helvetica,sans-Serif" font-size="10.00"> +p</text>
<text text-anchor="middle" x="232.5" y="-90" font-family="Helvetica,sans-Serif" font-size="10.00">+r</text>
</g>
</g>
</svg>
